<svg width="395" height="401" viewBox="0 0 395 401" fill="none" xmlns="http://www.w3.org/2000/svg">
<path fill-rule="evenodd" clip-rule="evenodd" d="M143 10.8682C172.34 -2.8593 205.278 -2.69584 236.352 6.40792C267.42 15.51 280.493 31.0399 298 58.3675C305.701 70.3923 303.552 89.6819 291.5 97.3676C279.447 105.051 265.703 103.489 258 91.4647C247.15 74.53 241 65.8682 220.5 55.775C201.578 50.2314 183.915 49.985 166 58.3675C148.074 66.7552 138.233 76.4279 130 94.8676C124.934 106.216 123.796 117.246 123.956 129.533C136.633 128.762 143.236 129.533 158.648 129.533H236.352C366.998 129.533 395 153.481 395 265.2C395 376.921 366.998 400.867 236.352 400.867H158.648C28.0017 400.867 0.000178924 376.921 0 265.2C0.000327945 187.859 12.5 149.368 71.2295 135.368C69.8392 113.391 72.9123 94.2243 82 73.8682C95.2369 44.2203 113.67 24.5923 143 10.8682ZM152.333 258.28C118.5 258.28 101.23 275.368 101.23 297.502C101.23 322.94 103.256 342.724 139.333 342.724H255.667C288.737 342.724 293.771 322.94 293.771 297.502C292.5 278.368 281.743 258.28 245.667 258.28H152.333Z" fill="white"/>
</svg>
