<svg width="331" height="331" viewBox="0 0 331 331" fill="none" xmlns="http://www.w3.org/2000/svg">
<path fill-rule="evenodd" clip-rule="evenodd" d="M162.787 0C219.727 0 265.885 46.6093 265.885 104.105C265.885 106.568 265.792 109.01 265.626 111.43C317.902 121.428 331 149.911 331 218.887C331 311.212 307.536 331 198.057 331H132.943C23.4644 331 0 311.212 0 218.887C1.36048e-07 152.325 12.1966 123.469 60.0277 112.546C59.8064 109.761 59.6885 106.947 59.6885 104.105C59.6885 46.6093 105.847 0 162.787 0ZM69.2947 203.565C39.063 203.565 38.0113 225.904 38.0112 246.926C38.0112 267.948 52.8289 291.624 82.9949 293.586C113.697 295.583 165.5 295.583 165.5 295.583C165.5 295.583 220.33 295.583 248.25 293.586C276.17 291.59 292.167 271.941 292.167 250.919C292.167 229.898 291.494 203.565 261.705 203.565H162.787H69.2947ZM162.787 42.7097C130.878 42.7097 103.098 69.1446 103.098 104.105C103.098 105.21 103.123 106.307 103.178 107.395C112.313 106.965 122.215 106.774 132.943 106.774H198.057C206.696 106.774 214.798 106.914 222.396 107.186C222.444 106.167 222.475 105.14 222.475 104.105C222.475 69.1446 194.696 42.7097 162.787 42.7097Z" fill="white"/>
</svg>
