<svg width="61" height="62" viewBox="0 0 61 62" fill="none" xmlns="http://www.w3.org/2000/svg">
<path d="M36.5 20C56.6758 20 61 23.7065 61 41C61 58.2935 56.6758 62 36.5 62H24.5C4.32425 62 0 58.2935 0 41C3.47767e-08 23.7065 4.32425 20 24.5 20H36.5Z" fill="black"/>
<path d="M36.5 20C56.6758 20 61 23.7065 61 41C61 58.2935 56.6758 62 36.5 62H24.5C4.32425 62 0 58.2935 0 41C3.47767e-08 23.7065 4.32425 20 24.5 20H36.5Z" stroke="black"/>
<g filter="url(#filter0_d_35_139)">
<path d="M30 4C38.187 4 45 10.841 45 19.5C45 28.159 38.187 35 30 35C21.813 35 15 28.159 15 19.5C15 10.841 21.813 4 30 4Z" stroke="black" stroke-width="8" shape-rendering="crispEdges"/>
</g>
<path d="M42.5713 40.0001C48.1427 40.0001 50 43.0625 50 47.0001C50 50.9377 47.6784 54.0001 42.5713 54.0001H18.4287C12.8573 54.0001 11 50.9377 11 47.0001C11 43.0625 12.8573 40.0001 18.4287 40.0001H42.5713Z" fill="white"/>
<path d="M42.5713 40.0001C48.1427 40.0001 50 43.0625 50 47.0001C50 50.9377 47.6784 54.0001 42.5713 54.0001H18.4287C12.8573 54.0001 11 50.9377 11 47.0001C11 43.0625 12.8573 40.0001 18.4287 40.0001H42.5713Z" stroke="white"/>
<defs>
<filter id="filter0_d_35_139" x="7" y="0" width="46" height="47" filterUnits="userSpaceOnUse" color-interpolation-filters="sRGB">
<feFlood flood-opacity="0" result="BackgroundImageFix"/>
<feColorMatrix in="SourceAlpha" type="matrix" values="0 0 0 0 0 0 0 0 0 0 0 0 0 0 0 0 0 0 127 0" result="hardAlpha"/>
<feOffset dy="4"/>
<feGaussianBlur stdDeviation="2"/>
<feComposite in2="hardAlpha" operator="out"/>
<feColorMatrix type="matrix" values="0 0 0 0 0 0 0 0 0 0 0 0 0 0 0 0 0 0 0.25 0"/>
<feBlend mode="normal" in2="BackgroundImageFix" result="effect1_dropShadow_35_139"/>
<feBlend mode="normal" in="SourceGraphic" in2="effect1_dropShadow_35_139" result="shape"/>
</filter>
</defs>
</svg>
