<svg width="61" height="62" viewBox="0 0 61 62" fill="none" xmlns="http://www.w3.org/2000/svg">
<path d="M30 0C40.4934 0 49 8.73045 49 19.5C49 19.9613 48.9829 20.4188 48.9521 20.8721C58.5862 22.7448 61 28.0801 61 41C61 58.2935 56.6758 62 36.5 62H24.5C4.32425 62 0 58.2935 0 41C2.50723e-08 28.5323 2.24772 23.1271 11.0625 21.0811C11.0217 20.5595 11 20.0323 11 19.5C11 8.73045 19.5066 0 30 0ZM18.4287 40C12.8573 40 11 43.0624 11 47C11 50.9376 12.8573 54 18.4287 54H42.5713C47.6784 54 50 50.9376 50 47C50 43.0624 48.1427 40 42.5713 40H18.4287ZM30 8C24.1195 8 19 12.9516 19 19.5C19 19.707 19.0046 19.9125 19.0146 20.1162C20.6981 20.0357 22.523 20 24.5 20H36.5C38.092 20 39.5851 20.0261 40.9854 20.0771C40.9942 19.8862 41 19.6938 41 19.5C41 12.9516 35.8805 8 30 8Z" fill="black"/>
</svg>
