<svg width="61" height="63" viewBox="0 0 61 63" fill="none" xmlns="http://www.w3.org/2000/svg">
<path d="M22.0186 1.94114C26.5497 -0.183836 31.6874 -0.579425 36.4863 0.829808C41.2842 2.23876 45.4067 5.35254 48.1104 9.58274C49.2996 11.4441 48.7548 13.9176 46.8936 15.1072C45.0323 16.2963 42.5588 15.7513 41.3691 13.8904C39.6935 11.2689 37.1558 9.3641 34.2324 8.50559C31.3101 7.64743 28.1818 7.88668 25.415 9.1843C22.6467 10.4827 20.414 12.7596 19.1426 15.614C18.3602 17.3707 17.9782 19.2697 18.0029 21.1716C19.9607 21.0522 22.12 20.9997 24.5 20.9997H36.5C56.6758 20.9997 61 24.7062 61 41.9997C60.9999 59.2929 56.6756 62.9997 36.5 62.9997H24.5C4.32442 62.9997 7.22508e-05 59.2929 0 41.9997C0 30.0278 2.07278 24.5684 10.042 22.3415C9.82722 18.9396 10.4316 15.5101 11.835 12.3591C13.8791 7.76977 17.489 4.06556 22.0186 1.94114ZM18.4287 39.9997C12.8573 39.9997 11 43.0621 11 46.9997C11.0001 50.9371 12.8575 53.9997 18.4287 53.9997H42.5713C47.6782 53.9997 49.9998 50.9371 50 46.9997C50 43.0621 48.1427 39.9997 42.5713 39.9997H18.4287Z" fill="black"/>
</svg>
