<svg width="395" height="401" viewBox="0 0 395 401" fill="none" xmlns="http://www.w3.org/2000/svg">
<path fill-rule="evenodd" clip-rule="evenodd" d="M194.262 0C262.211 0 317.295 56.4663 317.295 126.121C317.295 129.105 317.184 132.063 316.985 134.995C379.37 147.108 395 181.615 395 265.177C395 377.027 366.999 401 236.352 401H158.648C28.0013 401 0 377.027 0 265.177C1.62353e-07 184.539 14.5549 149.58 71.6342 136.347C71.3702 132.974 71.2295 129.564 71.2295 126.121C71.2295 56.4663 126.313 0 194.262 0ZM149.333 238.71C113.256 238.71 101.23 258.517 101.23 283.984C101.23 309.451 113.256 329.258 149.333 329.258H245.667C278.737 329.258 293.771 309.451 293.771 283.984C293.77 258.517 281.744 238.71 245.667 238.71H149.333ZM194.262 51.7419C156.184 51.7419 123.033 83.7674 123.033 126.121C123.033 127.46 123.062 128.789 123.128 130.106C134.029 129.586 145.845 129.355 158.648 129.355H236.352C246.661 129.355 256.33 129.524 265.397 129.854C265.454 128.619 265.492 127.375 265.492 126.121C265.492 83.7674 232.341 51.7419 194.262 51.7419Z" fill="white"/>
</svg>
