<svg width="395" height="401" viewBox="0 0 395 401" fill="none" xmlns="http://www.w3.org/2000/svg">
<path fill-rule="evenodd" clip-rule="evenodd" d="M143 10.8683C172.34 -2.85914 205.278 -2.69568 236.352 6.40806C267.42 15.5101 280.493 31.04 298 58.3677C305.701 70.3924 303.552 89.682 291.5 97.3677C279.447 105.051 265.703 103.489 258 91.4649C247.15 74.5302 241 65.8683 220.5 55.7752C201.578 50.2316 183.915 49.9852 166 58.3677C148.074 66.7554 138.233 76.4281 130 94.8677C124.934 106.216 123.796 117.246 123.956 129.533C136.633 128.762 143.236 129.533 158.648 129.533H236.352C366.998 129.533 395 153.481 395 265.2C395 376.921 366.998 400.868 236.352 400.868H158.648C28.0017 400.868 0.000178924 376.921 0 265.2C0.000327945 187.859 12.5 149.368 71.2295 135.368C69.8392 113.391 72.9123 94.2244 82 73.8683C95.2369 44.2205 113.67 24.5925 143 10.8683ZM152.333 245.28C118.5 245.28 102 265.366 102 287.5C102 312.938 116.256 329.725 152.333 329.725L245.667 329.725C278.737 329.725 294 312.368 294 287.5C294 265.2 281.743 245.28 245.667 245.28H152.333Z" fill="white"/>
</svg>
